<?xml version="1.0" encoding="utf-8"?>
<!-- Generator: Adobe Illustrator 17.0.0, SVG Export Plug-In . SVG Version: 6.00 Build 0)  -->
<!DOCTYPE svg PUBLIC "-//W3C//DTD SVG 1.0//EN" "http://www.w3.org/TR/2001/REC-SVG-20010904/DTD/svg10.dtd">
<svg version="1.0" xmlns="http://www.w3.org/2000/svg" xmlns:xlink="http://www.w3.org/1999/xlink" x="0px" y="0px" width="1200px"
	 height="420px" viewBox="0 0 1200 420" enable-background="new 0 0 1200 420" xml:space="preserve">
<g id="Capa_8">
</g>
<g id="Capa_12">
	<circle fill="#2A7D14" cx="196.526" cy="210" r="96.526"/>
	<linearGradient id="SVGID_1_" gradientUnits="userSpaceOnUse" x1="128.2717" y1="278.2538" x2="264.7794" y2="141.7461">
		<stop  offset="0" style="stop-color:#FFFFFF;stop-opacity:0"/>
		<stop  offset="1" style="stop-color:#FFFFFF"/>
	</linearGradient>
	<circle opacity="0.2" fill="url(#SVGID_1_)" cx="196.526" cy="210" r="96.526"/>
	<path fill="#FFFFFF" d="M243.254,217.53c-0.03,0.008-0.634,0.035-0.791,0.078c3.048-1.79,5.15-5.073,5.15-10.495v-28.696
		c0-11.545-5.104-10.334-5.951-10.063c-4.71,1.504-19.863,6.456-26.723,8.667c-5.568,1.674-13.049,4.216-13.135,4.241
		c-0.244,0.072-0.343,0.312-0.307,0.563c0.036,0.252,0.279,0.438,0.533,0.438c2.958,0,6.427,1.097,6.427,4.19
		c0,1.455-0.767,20.923-1.593,41.245c-5.611,1.113-12.7,1.123-18.489-3.993c-22.586-19.958-5.892-69.382,29.949-77.826
		c-3.978-3.096-12.074-2.924-12.074-2.924c2.583,1.722,1.721,2.583,1.721,2.583c-2.239,1.895-18.601,2.411-32.207-2.583
		c2.411,3.1,7.14,5.421,7.14,5.421c-43.582,2.307-62.401,17.658-62.401,17.658s18.142-10.352,45.036-12.865
		c-10.568,1.783-22.851,4.957-34.949,10.593c0,0,6.024,9.163,5.024,25.891v-0.001c-1,1.312-1.583,2.661-2.125,4.049
		c0,0,14.685-20.136,41.303-28.64c-9.377,4.1-25.523,12.808-37.64,28.145c0,0,7.085,7.052,8.525,18.671
		c-0.847,2.972-1.372,5.985-1.437,8.997c0,0,2.316-20.795,30.365-42.185c-6.945,6.727-23.262,23.876-27.083,39.92
		c0,0,8.918,4.046,16.304,18.266c0.729,3.376,1.803,6.788,3.303,10.191c0,0-6.346-26.068,3.317-44.402
		c-6.68,20.716-1.879,39.082-1.879,39.082c13.869-1.317,21.863,5.188,21.863,5.188c2.212-6.132,5.869-9.526,8.34-11.225
		c-7.039,7.158-7.88,14.65-7.249,20.116c0.403-6.479,6.828-16.757,23.413-23.475c16.793-6.802,20.373-7.912,21.984-8.407
		c3.952-1.216,5.696,1.296,5.696,5.598v21.04c0,7.459,0.003,14.015-8.453,17.52l-7.547,2.638v-39.864
		c-7,2.121-13.577,5.343-19.961,9.77c-0.708,17.26-1.497,32.412-1.585,34.268c-0.189,3.978-3.277,7.107-5.797,8.577
		c-0.226,0.132-0.355,0.414-0.247,0.652c0.085,0.187,0.25,0.3,0.446,0.3c0.054,0,0.124-0.008,0.178-0.026l25.022-8.349
		c1.701-0.552,20.949-6.755,22.824-7.406c5.823-2.022,9.12-4.889,9.12-12.774v-26.77
		C256.612,216.147,247.826,216.351,243.254,217.53z M237.612,206.452c0,6.257-1.034,10.065-7.207,12.884l-3.793,1.559v-38.563
		c0-1.029-0.322-1.904-0.348-2.648l6.455-2.096c0.023-0.004,0.875-0.29,1.64-0.29c1.977,0,3.253,1.214,3.253,3.609V206.452z"/>
	<g>
		<path fill="#414141" d="M312.575,157.443l-2.046,0.648l-0.909-0.972l0.227-5.669l0.909-1.296l61.607-1.619
			c23.188,0,38.647,12.309,38.647,30.772c0,10.69-8.411,19.921-20.915,24.942c17.96,4.049,31.145,16.682,31.145,31.745
			c0,19.435-15.459,32.392-38.647,32.392l-71.838-1.62l-0.909-1.296l-0.227-5.668l0.909-0.972l2.046,0.648
			c2.956,0.81,6.593,1.133,8.639,1.133V156.31C319.168,156.31,315.531,156.634,312.575,157.443z M359.293,202.954
			c12.503,0,17.618-8.098,17.618-23.646c0-15.549-5.911-23.808-17.05-23.808l-2.273,0.162v47.293H359.293z M362.134,261.423
			c14.777,0,22.734-8.908,22.734-25.428c0-17.006-7.957-26.076-22.734-26.076l-4.547,0.162v51.18L362.134,261.423z"/>
		<path fill="#414141" d="M465.234,224.495h-20.347c-1.364,5.507-2.046,11.014-2.046,15.872c0,10.852,3.524,18.949,11.708,18.949
			c0.909,0,1.705-0.323,2.614-0.486l0.909,1.134l-0.455,5.668l-0.909,1.296l-18.414-0.972l-15.345,0.972l-0.909-1.296l-0.341-5.668
			c10.571-19.759,24.552-55.553,33.077-83.896l7.843-26.076l5.683,0.162l27.394-1.619c0,1.296,1.023,5.507,2.501,11.337
			l27.735,91.994c1.591,5.182,3.637,8.584,7.616,8.584l0.682,1.296l-0.114,3.887l-1.023,1.296l-24.666-0.972l-22.62,0.972
			l-0.909-1.296l-0.227-4.697l0.909-1.133c0.455,0.162,1.591,0.648,2.501,0.648c0.909,0,1.591-1.296,1.591-2.753
			c0-0.648-0.114-1.457-0.227-1.943l-9.207-30.287C476.487,225.144,468.644,224.495,465.234,224.495z M463.302,170.076h-1.364
			l-14.663,46.321c4.66,0.648,14.549,1.944,17.96,1.944c2.728,0,8.525-0.487,12.617-0.81L463.302,170.076z"/>
		<path fill="#414141" d="M543.999,227.735l1.591,1.296c6.82,23.323,24.893,32.878,37.397,32.878
			c18.983,0,28.303-5.992,28.303-12.633c0-10.851-18.983-14.739-36.715-21.703c-17.732-6.964-35.351-17.33-35.351-40.976
			c0-19.597,16.823-38.061,44.899-38.061c10.571,0,20.006,3.563,26.03,3.563c3.069,0,5.229-0.81,6.252-3.563h7.388l1.023,1.296
			l2.273,35.631h-6.252l-1.137-0.972c-6.82-23.322-27.394-29.477-35.464-29.477c-14.208,0-20.915,5.831-20.915,11.985
			c0,10.041,17.96,11.823,35.578,19.759c17.164,7.775,35.237,15.873,35.237,42.11c0,25.59-19.778,39.519-51.151,39.519
			c-10.116,0-21.711-5.669-28.644-5.669c-2.387,0-4.32,0.648-5.343,2.429h-7.388l-1.023-1.295l-2.387-36.118H543.999z"/>
		<path fill="#414141" d="M639.621,157.606l-1.819,0.486l-0.909-1.134l0.227-5.668l0.909-1.296l28.644,0.972l28.644-0.972
			l0.909,1.296l0.227,5.668l-0.909,1.134l-1.819-0.486c-2.956-0.81-6.82-0.972-8.866-0.972v103.655c2.046,0,5.911-0.162,8.866-0.972
			l1.819-0.486l0.909,1.134l-0.227,5.668l-0.909,1.296l-28.644-0.972l-28.644,0.972l-0.909-1.296l-0.227-5.668l0.909-1.134
			l1.819,0.486c2.955,0.81,6.82,0.972,8.866,0.972V156.634C646.441,156.634,642.576,156.796,639.621,157.606z"/>
		<path fill="#414141" d="M706.097,157.606l-1.819,0.486l-0.909-1.134l0.227-5.668l0.909-1.296l28.644,0.972l28.644-0.972
			l0.909,1.296l0.227,5.668l-0.909,1.134l-1.819-0.486c-2.956-0.81-6.82-0.972-8.866-0.972v103.655
			c20.687,0,43.762-16.359,49.104-39.195l1.137-1.134l5.911,0.162l0.795,1.458l-2.387,46.807c0,0-45.467-1.62-54.56-1.62h-46.831
			l-0.909-1.296l-0.227-5.668l0.909-1.134l1.819,0.486c2.955,0.81,6.82,1.134,8.866,1.134V156.634
			C712.917,156.634,709.052,156.796,706.097,157.606z"/>
		<path fill="#414141" d="M815.208,157.606l-1.819,0.486l-0.909-1.134l0.227-5.668l0.909-1.296l28.644,0.972l28.644-0.972
			l0.909,1.296l0.227,5.668l-0.909,1.134l-1.818-0.486c-2.956-0.81-6.82-0.972-8.866-0.972v103.655c2.046,0,5.911-0.162,8.866-0.972
			l1.818-0.486l0.909,1.134l-0.227,5.668l-0.909,1.296l-28.644-0.972l-28.644,0.972l-0.909-1.296l-0.227-5.668l0.909-1.134
			l1.819,0.486c2.955,0.81,6.82,0.972,8.866,0.972V156.634C822.028,156.634,818.163,156.796,815.208,157.606z"/>
		<path fill="#414141" d="M882.552,227.735l1.591,1.296c6.82,23.323,24.893,32.878,37.397,32.878
			c18.983,0,28.303-5.992,28.303-12.633c0-10.851-18.983-14.739-36.715-21.703c-17.732-6.964-35.351-17.33-35.351-40.976
			c0-19.597,16.823-38.061,44.899-38.061c10.571,0,20.006,3.563,26.03,3.563c3.069,0,5.229-0.81,6.252-3.563h7.388l1.023,1.296
			l2.273,35.631h-6.252l-1.137-0.972c-6.82-23.322-27.394-29.477-35.465-29.477c-14.208,0-20.915,5.831-20.915,11.985
			c0,10.041,17.96,11.823,35.578,19.759c17.164,7.775,35.237,15.873,35.237,42.11c0,25.59-19.778,39.519-51.151,39.519
			c-10.116,0-21.711-5.669-28.644-5.669c-2.387,0-4.32,0.648-5.343,2.429h-7.388l-1.023-1.295l-2.387-36.118H882.552z"/>
		<path fill="#414141" d="M977.466,157.606l-1.819,0.486l-0.909-1.134l0.227-5.668l0.909-1.296l28.644,0.486l25.234-0.486
			l0.909,1.296l0.227,5.021l-0.909,1.133l-1.818-0.486c-1.364-0.323-3.41-0.323-5.456-0.323l-0.455,43.73h4.092l23.188-39.843
			c0.455-0.648,0.569-1.457,0.569-2.267c0-2.105-1.023-4.535-1.023-7.612l0.909-1.296l42.284,0.81l0.909,1.296v3.887l-0.909,1.296
			c-2.273,0-8.98,3.077-14.549,7.774l-46.149,38.709v0.323c2.046,1.458,7.161,2.106,12.844,2.106c9.889,0,21.938-1.943,24.666-3.887
			l1.251,0.648l16.027,51.018c1.705,5.507,4.433,6.316,7.843,6.316c1.705,0,5.797-0.162,5.797-0.162v4.859l-40.352,6.964
			c-0.227,0-1.25,0.162-1.25,0.162c-1.592,0-4.32-2.591-6.707-9.231l-13.64-38.871c-4.092-11.5-9.548-15.225-15.913-16.196
			l0.568,53.123c2.046,0,5.911-0.162,8.866-0.972l1.818-0.486l0.909,1.134l-0.227,5.668l-0.909,1.296l-28.644-0.972l-28.644,0.972
			l-0.909-1.296l-0.227-5.668l0.909-1.134l1.819,0.486c2.955,0.81,6.82,0.972,8.866,0.972V156.634
			C984.287,156.634,980.422,156.796,977.466,157.606z"/>
	</g>
</g>
<g id="Capa_3">
</g>
</svg>
