<?xml version="1.0" encoding="utf-8"?>
<!-- Generator: Adobe Illustrator 17.0.0, SVG Export Plug-In . SVG Version: 6.00 Build 0)  -->
<!DOCTYPE svg PUBLIC "-//W3C//DTD SVG 1.0//EN" "http://www.w3.org/TR/2001/REC-SVG-20010904/DTD/svg10.dtd">
<svg version="1.0" id="Capa_1" xmlns="http://www.w3.org/2000/svg" xmlns:xlink="http://www.w3.org/1999/xlink" x="0px" y="0px"
	 width="1200px" height="1200px" viewBox="0 0 1200 1200" enable-background="new 0 0 1200 1200" xml:space="preserve">
<g>
	<circle fill="#2C7E33" cx="600" cy="600" r="518.748"/>
	<linearGradient id="SVGID_1_" gradientUnits="userSpaceOnUse" x1="233.19" y1="966.81" x2="966.8102" y2="233.1898">
		<stop  offset="0" style="stop-color:#FFFFFF;stop-opacity:0"/>
		<stop  offset="1" style="stop-color:#FFFFFF"/>
	</linearGradient>
	<circle opacity="0.2" fill="url(#SVGID_1_)" cx="600" cy="600" r="518.748"/>
	<path fill="#FFFFFF" d="M852.166,640.468c-0.163,0.041-3.201,0.188-4.049,0.419c16.38-9.62,27.882-27.262,27.882-56.403V430.267
		c0-62.045-28.153-55.537-32.706-54.082c-25.311,8.084-107.109,34.698-143.979,46.58c-29.922,8.999-70.308,22.657-70.769,22.792
		c-1.31,0.385-1.936,1.674-1.741,3.026c0.195,1.352,1.454,2.355,2.82,2.355c15.899,0,34.516,5.897,34.516,22.52
		c0,7.821-4.131,112.447-8.574,221.659c-30.156,5.982-68.257,6.035-99.371-21.459c-121.382-107.26-31.667-372.873,160.947-418.25
		c-21.38-16.637-64.892-15.712-64.892-15.712c13.884,9.255,9.251,13.884,9.251,13.884c-12.033,10.182-99.966,12.958-173.088-13.884
		c12.958,16.661,38.371,29.132,38.371,29.132c-234.217,12.4-335.355,94.899-335.355,94.899s97.5-55.631,242.033-69.139
		c-56.796,9.58-122.128,26.639-187.145,56.929c0,0,33.681,49.242,27.681,139.142v-0.007c-5,7.05-9.189,14.303-12.099,21.761
		c0,0,78.58-108.217,221.632-153.916c-50.395,22.033-137.338,68.834-202.455,151.255c0,0,37.989,37.901,45.731,100.34
		c-4.554,15.973-7.418,32.162-7.766,48.354c0,0,12.424-111.757,163.165-226.709c-37.323,36.15-125.024,128.314-145.559,214.539
		c0,0,47.924,21.743,87.615,98.164c3.916,18.143,9.688,36.479,17.746,54.77c0,0-34.108-140.094,17.825-238.628
		c-35.902,111.333-10.098,210.032-10.098,210.032c74.535-7.077,117.494,27.882,117.494,27.882
		c11.889-32.952,31.54-51.193,44.821-60.328c-37.83,38.467-42.349,78.73-38.96,108.108c2.168-34.818,36.693-90.055,125.827-126.161
		c90.251-36.558,110.148-42.518,118.808-45.183c21.242-6.535,31.272,6.967,31.272,30.087V818.09c0,40.088,0.01,75.319-45.435,94.157
		L763,926.426V712.189c-37,11.397-73.621,28.715-107.928,52.508c-3.806,92.76-8.369,174.188-8.844,184.161
		c-1.018,21.381-17.776,38.193-31.318,46.093c-1.216,0.709-1.989,2.222-1.408,3.505c0.455,1.006,1.304,1.613,2.356,1.613
		c0.289,0,0.647-0.045,0.934-0.141l134.465-44.867c9.14-2.965,113.622-36.304,123.694-39.801
		C906.245,904.392,925,888.982,925,846.61V702.741C925,633.036,876.738,634.134,852.166,640.468z M822,580.931
		c0,33.628-5.501,54.09-38.675,69.244L763,658.554V451.309c0-5.53-2.382-10.23-2.525-14.23l34.364-11.266
		c0.125-0.02,5.135-1.559,9.244-1.559c10.626,0,17.916,6.525,17.916,19.395V580.931z"/>
</g>
</svg>
